<?xml version="1.0" standalone="no"?>
<!DOCTYPE svg PUBLIC "-//W3C//DTD SVG 20010904//EN"
 "http://www.w3.org/TR/2001/REC-SVG-20010904/DTD/svg10.dtd">
<svg version="1.0" xmlns="http://www.w3.org/2000/svg"
 width="2976.000000pt" height="2975.000000pt" viewBox="0 0 2976.000000 2975.000000"
 preserveAspectRatio="xMidYMid meet">

<g transform="translate(0.000000,2975.000000) scale(0.100000,-0.100000)"
fill="#000000" stroke="none">
<path d="M6145 18654 c-769 -48 -1449 -299 -2047 -756 -391 -298 -745 -716
-978 -1151 l-51 -95 43 -35 c111 -89 1131 -878 1132 -875 1 2 17 44 35 93 253
683 878 1218 1599 1369 190 40 305 49 536 43 175 -4 232 -10 336 -32 357 -75
668 -229 945 -468 l40 -35 365 358 c201 196 430 421 510 499 l145 141 -60 57
c-145 138 -394 316 -617 442 -393 222 -859 373 -1318 426 -132 15 -496 26
-615 19z"/>
<path d="M6330 15005 l0 -675 1005 0 1005 0 -6 -32 c-77 -435 -330 -851 -670
-1105 -28 -21 -53 -42 -55 -46 -2 -4 250 -205 561 -447 l565 -439 121 122
c449 454 756 1059 888 1752 66 348 91 762 66 1081 -11 136 -43 361 -60 425
l-11 39 -1704 0 -1705 0 0 -675z"/>
</g>
</svg>
