<?xml version="1.0" standalone="no"?>
<!DOCTYPE svg PUBLIC "-//W3C//DTD SVG 20010904//EN"
 "http://www.w3.org/TR/2001/REC-SVG-20010904/DTD/svg10.dtd">
<svg version="1.0" xmlns="http://www.w3.org/2000/svg"
 width="512.000000pt" height="512.000000pt" viewBox="0 0 512.000000 512.000000"
 preserveAspectRatio="xMidYMid meet">

<g transform="translate(0.000000,512.000000) scale(0.100000,-0.100000)"
fill="#000000" stroke="none">
<path d="M2368 4900 c-582 -52 -1104 -304 -1506 -725 -351 -368 -563 -815
-633 -1335 -16 -122 -16 -438 0 -560 57 -426 204 -789 457 -1130 97 -131 328
-362 457 -459 509 -380 1118 -540 1732 -456 714 98 1337 513 1707 1138 437
737 431 1673 -15 2399 -105 172 -201 293 -352 444 -375 375 -817 596 -1341
669 -132 19 -383 26 -506 15z m432 -331 c722 -80 1360 -568 1636 -1251 62
-155 106 -318 128 -477 21 -148 21 -419 0 -564 -106 -739 -607 -1358 -1309
-1619 -362 -134 -794 -157 -1185 -61 -791 192 -1401 870 -1514 1682 -21 146
-21 416 0 562 60 431 264 840 574 1149 441 441 1042 649 1670 579z"/>
<path d="M1792 3663 c-89 -44 -114 -156 -53 -241 41 -59 62 -62 363 -62 296 0
352 -7 430 -53 71 -41 168 -161 168 -207 0 -7 -143 -10 -442 -10 -424 0 -444
-1 -476 -20 -98 -60 -97 -201 1 -274 28 -20 40 -21 443 -24 228 -2 414 -7 414
-11 0 -16 -79 -80 -129 -106 -72 -36 -154 -45 -441 -45 -237 0 -257 -2 -288
-20 -72 -44 -96 -151 -49 -221 15 -23 155 -125 427 -311 736 -503 817 -557
855 -564 86 -16 174 54 183 145 9 95 4 100 -395 371 -197 134 -369 252 -382
262 -26 20 -27 20 69 38 214 40 429 217 497 411 l17 47 152 4 c169 3 184 9
232 78 29 43 30 121 2 167 -36 59 -60 67 -213 73 l-139 5 -22 75 c-12 41 -34
98 -49 127 -15 29 -27 55 -27 58 0 3 79 5 176 5 160 0 180 2 213 21 59 33 76
64 76 139 0 75 -17 106 -76 139 -36 21 -47 21 -770 21 -657 0 -737 -2 -767
-17z"/>
</g>
</svg>
