<svg width="60" height="80" viewBox="0 0 40 50" fill="none" xmlns="http://www.w3.org/2000/svg">
<path d="M24.1624 14.9999L9.62047 29.4194C8.83982 30.1935 7.57807 30.1935 6.79741 29.4194L0.585488 23.2598C-0.195163 22.4857 -0.195163 21.2346 0.585488 20.4605L15.1274 6.04102L24.1624 14.9999Z" fill="url(#paint0_linear)"/>
<path d="M16.1588 13.0227L3.21151 25.864L0.917969 23.5898L13.8653 10.7515L16.1588 13.0227Z" fill="url(#paint1_linear)"/>
<path d="M12.7491 21.5977L0.585488 9.53648C-0.195163 8.7624 -0.195163 7.51127 0.585488 6.73719L6.79741 0.58056C7.57807 -0.19352 8.83982 -0.19352 9.62047 0.58056L21.7841 12.6418L12.7491 21.5977Z" fill="url(#paint2_linear)"/>
<path d="M26.2358 20.9404L17.6849 29.4192C16.9043 30.1933 15.6425 30.1933 14.8619 29.4192L8.64994 23.2596C7.86929 22.4855 7.86929 21.2344 8.64994 20.4603L17.2008 11.9814L26.2358 20.9404Z" fill="url(#paint3_linear)"/>
<path d="M24.2233 13.0227L11.276 25.861L8.98242 23.5898L21.9297 10.7515L24.2233 13.0227Z" fill="url(#paint4_linear)"/>
<path d="M28.4226 11.2284L17.6992 0.595314C16.9125 -0.184766 15.6356 -0.184766 14.8459 0.595314L8.66425 6.72495C7.87754 7.50503 7.87754 8.77116 8.66425 9.55424L18.495 19.3022C21.0881 21.8735 21.0881 26.0439 18.495 28.6152L23.191 23.9587L28.4226 18.7712C30.5225 16.689 30.5225 13.3136 28.4226 11.2284Z" fill="url(#paint5_linear)"/>
<path d="M39.7781 14.5616H45.911V20.1511C44.5591 21.6243 42.5596 22.4854 40.5033 22.4854C36.5819 22.4854 33.2871 19.3651 33.2871 15.6717C33.2871 11.9783 36.5819 8.87598 40.5033 8.87598C42.5596 8.87598 44.5591 9.73707 45.911 11.1922L43.1893 13.5835C42.5417 12.7404 41.5509 12.2423 40.5033 12.2423C38.656 12.2423 37.0952 13.8115 37.0952 15.6687C37.0952 17.5439 38.656 19.113 40.5033 19.113C41.151 19.113 41.7777 18.921 42.3328 18.576V17.2948H39.7811V14.5616H39.7781Z" fill="white"/>
<path d="M47.0723 17.2975C47.0723 14.4832 49.606 12.1279 52.6322 12.1279C55.6404 12.1279 58.1742 14.4832 58.1742 17.2975C58.1742 20.1118 55.6404 22.485 52.6322 22.485C49.606 22.485 47.0723 20.1118 47.0723 17.2975ZM54.7481 17.2975C54.7481 16.1483 53.7782 15.1912 52.6351 15.1912C51.4742 15.1912 50.5013 16.1483 50.5013 17.2975C50.5013 18.4466 51.4712 19.4217 52.6351 19.4217C53.7752 19.4217 54.7481 18.4466 54.7481 17.2975Z" fill="white"/>
<path d="M59.623 9.104H63.3177V14.2915L67.7167 9.104H72.0769L67.2422 14.5976L72.4589 22.2544H68.042L64.6726 17.2768L63.3207 18.771V22.2544H59.626V9.104H59.623Z" fill="white"/>
<path d="M72.2324 12.3589H75.754L77.2193 17.2974L78.6667 12.3589H81.675L83.1403 17.2974L84.5878 12.3589H88.1093L84.7608 22.2539H81.5049L80.1709 17.1624L78.8756 22.2539H75.6197L72.2324 12.3589Z" fill="white"/>
<path d="M89.0449 9.39179C89.0449 8.39569 89.8835 7.5166 90.949 7.5166C91.9786 7.5166 92.8142 8.39869 92.8142 9.39179C92.8142 10.4269 91.9756 11.306 90.949 11.306C89.8835 11.306 89.0449 10.4239 89.0449 9.39179ZM89.0837 12.3591H92.7575V22.2571H89.0837V12.3591Z" fill="white"/>
<path d="M105.002 22.2544H100.89L99.081 18.981L98.2812 19.9771V22.2544H94.6074V9.104H98.2812V15.8427L100.815 12.3593H104.927L101.48 16.6288L105.002 22.2544Z" fill="white"/>
<defs>
<linearGradient id="paint0_linear" x1="0.360401" y1="29.6442" x2="9.17352" y2="20.7563" gradientUnits="userSpaceOnUse">
<stop stop-color="#EDDE5D"/>
<stop offset="1" stop-color="#F09819"/>
</linearGradient>
<linearGradient id="paint1_linear" x1="-1.90384" y1="28.6617" x2="5.24609" y2="21.4511" gradientUnits="userSpaceOnUse">
<stop stop-color="#EDDE5D"/>
<stop offset="1" stop-color="#F09819"/>
</linearGradient>
<linearGradient id="paint2_linear" x1="-1.40702" y1="-1.39517" x2="18.4525" y2="18.633" gradientUnits="userSpaceOnUse">
<stop stop-color="#EDCE4D"/>
<stop offset="1" stop-color="#F09819"/>
</linearGradient>
<linearGradient id="paint3_linear" x1="34.407" y1="3.88112" x2="12.6349" y2="25.8381" gradientUnits="userSpaceOnUse">
<stop offset="0.1617" stop-color="#000428"/>
<stop offset="1" stop-color="#004B8D"/>
</linearGradient>
<linearGradient id="paint4_linear" x1="22.0876" y1="12.8687" x2="10.0431" y2="25.0154" gradientUnits="userSpaceOnUse">
<stop offset="0.1617" stop-color="#000428"/>
<stop offset="1" stop-color="#004B8D"/>
</linearGradient>
<linearGradient id="paint5_linear" x1="-22.7211" y1="-25.8693" x2="21.4361" y2="18.6628" gradientUnits="userSpaceOnUse">
<stop offset="0.1617" stop-color="#000428"/>
<stop offset="1" stop-color="#004B8D"/>
</linearGradient>
</defs>
</svg>
